inDegrees=yes
name=ik_XSDot_20240315_154947_orientations
DataType=double
version=3
OpenSimVersion=4.5-2024-01-10-34fd6af
endheader
time	pelvis_tilt	pelvis_list	pelvis_rotation	pelvis_tx	pelvis_ty	pelvis_tz	hip_flexion_r	hip_adduction_r	hip_rotation_r	knee_angle_r	ankle_angle_r	subtalar_angle_r	mtp_angle_r	hip_flexion_l	hip_adduction_l	hip_rotation_l	knee_angle_l	ankle_angle_l	subtalar_angle_l	mtp_angle_l	lumbar_extension	lumbar_bending	lumbar_rotation
3.779999999999963	35.67364747011628	-3.338394974899736	55.23173424722921	0	0.95	0	-10.4060422611781	-9.754216864404613	35.56994682528249	13.28260237490282	0	0	0	-8.712148014182299	-15.99177340595648	-31.63957484315043	2.656221947971574	0	0	0	0	0	0
3.789999999999963	35.65493977306076	-3.346371392036317	55.075042780423	0	0.95	0	-10.3383708364458	-9.768320305221803	35.71541663476222	13.25526021827311	0	0	0	-8.744788434083922	-15.95828645526704	-31.80276470159793	2.662838385534373	0	0	0	0	0	0
3.799999999999963	35.63349263601821	-3.364092996168332	54.90836540514855	0	0.95	0	-10.28647031555492	-9.798768106503587	35.87289758054168	13.25177862102401	0	0	0	-8.776483163902697	-15.92683413169407	-31.97365394174353	2.655376906627354	0	0	0	0	0	0
3.809999999999963	35.60508659629952	-3.376984498601842	54.70280700162801	0	0.95	0	-10.23628700248407	-9.838799717562646	36.07836809760904	13.2801392927893	0	0	0	-8.808415963763265	-15.88792751192843	-32.18566615155122	2.607046248020446	0	0	0	0	0	0
3.819999999999963	35.56500279006568	-3.401146472213414	54.48637212749568	0	0.95	0	-10.17037226610493	-9.891821429649198	36.30051722004296	13.30670172333434	0	0	0	-8.83430040498998	-15.84420374644149	-32.41200502790393	2.543714513761327	0	0	0	0	0	0
3.829999999999962	35.52287990856214	-3.430999138340225	54.29139653429764	0	0.95	0	-10.10094895386834	-9.947565032007088	36.50974175631463	13.33297490144086	0	0	0	-8.843203314869417	-15.81516625476564	-32.62422460672955	2.474698053844411	0	0	0	0	0	0
3.839999999999962	35.48237171433996	-3.462553858340133	54.13005263748045	0	0.95	0	-10.02008823785335	-9.987414754254418	36.6973605174926	13.34804388764317	0	0	0	-8.850146471628944	-15.79225498890463	-32.80025687645756	2.383930892142826	0	0	0	0	0	0
3.849999999999962	35.42661288255475	-3.508469866727774	54.04242789893762	0	0.95	0	-9.946714057104034	-10.02960096235185	36.81351020786009	13.34720476937837	0	0	0	-8.864042153718206	-15.7967267800802	-32.92735259363935	2.227875788633848	0	0	0	0	0	0
3.859999999999962	35.35214697105017	-3.562889401952781	54.01269478285024	0	0.95	0	-9.871551800160535	-10.07862313843658	36.87757084346848	13.37815204120358	0	0	0	-8.792534683318424	-15.80080996224827	-33.01033325783392	1.991771626647538	0	0	0	0	0	0
3.869999999999961	35.26508402969934	-3.625127265616729	54.04717671560705	0	0.95	0	-9.747333722504333	-10.11107037941411	36.90831239537116	13.41102734170216	0	0	0	-8.681585269276438	-15.80115544683441	-33.00665160822092	1.704635124696503	0	0	0	0	0	0
3.879999999999961	35.16770242103708	-3.688291644418031	54.10472476114413	0	0.95	0	-9.632168681815033	-10.1617536143286	36.92693711979506	13.47701832953151	0	0	0	-8.497740763568162	-15.793365182439	-32.98065366783181	1.29282161445824	0	0	0	0	0	0
3.889999999999961	35.07394081837114	-3.77822835988929	54.16663123450272	0	0.95	0	-9.547719222732868	-10.20079688923844	36.93987017361088	13.5625201829228	0	0	0	-8.240521841964037	-15.77903941307337	-32.92530072372966	0.7406282143900982	0	0	0	0	0	0
3.899999999999961	34.99596716209322	-3.882359175434408	54.24087263943807	0	0.95	0	-9.480665607640423	-10.20136901678474	36.92778701641969	13.63408645704069	0	0	0	-8.009523730151065	-15.75069578328518	-32.86299060733024	0.2274979449087213	0	0	0	0	0	0
3.909999999999961	34.94439197865281	-3.985114566266967	54.26829627907827	0	0.95	0	-9.402054714200519	-10.17650495647457	36.97284451947971	13.68771388085359	0	0	0	-7.870266315522955	-15.72453088531779	-32.82823744061524	-0.3176595914481625	0	0	0	0	0	0
3.91999999999996	34.8809677650237	-4.056972516008893	54.13826836186834	0	0.95	0	-9.27936024199898	-10.1916581799081	37.17024035392933	13.69065670845918	0	0	0	-7.798524167819599	-15.63567171666789	-32.93526917908201	-0.8240289172092263	0	0	0	0	0	0
3.92999999999996	34.75293352537201	-4.056184168696484	53.95792758837251	0	0.95	0	-9.175447270355129	-10.28711863593135	37.39090882547583	13.68151735179108	0	0	0	-7.774075933031407	-15.43649672357705	-33.06782819125297	-1.23008259542083	0	0	0	0	0	0
3.93999999999996	34.65825734478511	-4.083917005125339	53.73672933088527	0	0.95	0	-9.044984836476944	-10.3633339030159	37.67332741250579	13.64832344417651	0	0	0	-7.765155758835135	-15.2574162626855	-33.26629043554865	-1.535864228393092	0	0	0	0	0	0
3.94999999999996	34.60185403007502	-4.099908953773353	53.45874378386112	0	0.95	0	-8.925595895200628	-10.41944135239187	37.99214434365043	13.60922449842779	0	0	0	-7.815075313440158	-15.1125699549583	-33.5170166330394	-1.764345636829343	0	0	0	0	0	0
3.95999999999996	34.58226470746622	-4.106517119715454	53.16583757488495	0	0.95	0	-8.84343139303876	-10.45582993916753	38.28969087506083	13.5769746863711	0	0	0	-7.89430506975826	-15.01235146546635	-33.7676262428178	-1.998527651747379	0	0	0	0	0	0
3.969999999999959	34.59947940818437	-4.093365143057351	52.8359684881242	0	0.95	0	-8.833686652966245	-10.4993637256654	38.5692333661568	13.56685674229283	0	0	0	-7.99066085535076	-14.94611430531258	-34.0420647424513	-2.260180947309683	0	0	0	0	0	0
3.979999999999959	34.61941951142921	-4.057739006924749	52.4073188539175	0	0.95	0	-8.889550505255967	-10.56964084479017	38.87729671427218	13.6051962987531	0	0	0	-8.111720966608662	-14.87008246760292	-34.40795996496675	-2.53868588582272	0	0	0	0	0	0
3.989999999999959	34.60125613110947	-3.904614968615028	51.84126112564973	0	0.95	0	-9.027049031848279	-10.7572448603112	39.25255809777504	13.6807642603844	0	0	0	-8.37363424041898	-14.6708173203905	-34.92297621124926	-2.761647079175401	0	0	0	0	0	0
3.999999999999959	34.55941676533007	-3.648917625921563	51.32766309999735	0	0.95	0	-9.22996473103292	-11.00948003006954	39.5312381250249	13.80843032265292	0	0	0	-8.716535672954976	-14.38468866554853	-35.38310450065088	-2.829883611177452	0	0	0	0	0	0
4.009999999999959	34.38221238659267	-3.068743110324412	50.82967057871566	0	0.95	0	-9.629069508405305	-11.53915985454711	39.72872133904939	14.02747731683449	0	0	0	-9.271828650676833	-13.75276767194946	-35.79419428436022	-2.695679483379546	0	0	0	0	0	0
4.019999999999959	33.96979557524802	-2.42275349785326	50.53775274972894	0	0.95	0	-9.984756251235789	-12.20323252589202	39.82304959881194	14.11128710042792	0	0	0	-9.525381403279948	-12.96423327299167	-35.90752494794788	-2.693929341648873	0	0	0	0	0	0
4.029999999999959	33.09591937297652	-1.211581048521598	50.38244346367551	0	0.95	0	-10.39440319930839	-13.61733428150161	39.81189937993617	14.48619258365744	0	0	0	-9.907542854775006	-11.46756935303183	-35.70442387174202	-2.638696080556774	0	0	0	0	0	0
4.039999999999958	32.25132981194982	-0.3861032710115618	49.04130900223199	0	0.95	0	-10.03270882484512	-15.02216518781989	41.1069374194043	14.75347485455676	0	0	0	-10.14475967677321	-10.02574704268617	-36.6552617511433	-2.730977015329517	0	0	0	0	0	0
4.049999999999958	32.49873828144501	-0.2298860955667072	44.69554786643241	0	0.95	0	-9.007402662746387	-15.65318675824616	45.56337482545419	14.78643931916333	0	0	0	-11.19882532212767	-9.184979462258573	-40.75574653415937	-2.717591448478929	0	0	0	0	0	0
4.059999999999958	33.02384827183081	-0.03700824908756058	42.2295449398337	0	0.95	0	-8.638688693525109	-15.76102288407356	48.08316030842214	14.73649261360607	0	0	0	-12.15056676654437	-8.756727955054975	-42.88045286914833	-2.715659918258697	0	0	0	0	0	0
4.069999999999958	33.08023208543207	-0.07646122634231309	40.6683634311036	0	0.95	0	-8.294741523117317	-16.01005089557813	49.56272085292877	15.11638038099548	0	0	0	-12.33524584401026	-8.347998403187075	-43.94143922936583	-2.880524666769063	0	0	0	0	0	0
4.079999999999957	33.16984212148576	0.006355852644055837	39.35776662083292	0	0.95	0	-8.092389112849268	-16.19529044618017	50.78995638861754	15.24292578275141	0	0	0	-12.64469987886612	-7.852372567916198	-44.63221233298083	-2.875649315214311	0	0	0	0	0	0
4.089999999999957	33.29787195628677	0.0711322447314947	38.13593241131381	0	0.95	0	-7.864333928637119	-16.25085980866572	51.95715489309492	15.28742540093639	0	0	0	-13.00456797671229	-7.324578785113726	-45.13567420880664	-2.741410347686998	0	0	0	0	0	0
